<?xml version="1.0" encoding="UTF-8"?>
<svg version="1.1" xmlns="http://www.w3.org/2000/svg" width="512" height="512">
<path d="M0 0 C0.55155762 0.45149414 1.10311523 0.90298828 1.67138672 1.36816406 C5.13995493 4.21542316 8.57952047 7.09501827 12 10 C15.47418592 8.4675069 18.05571271 6.39460285 20.9375 3.9375 C34.57610178 -7.32290437 49.31144883 -16.68423157 66.125 -22.375 C67.12503052 -22.71470825 67.12503052 -22.71470825 68.14526367 -23.0612793 C80.38267237 -26.93930056 92.38587358 -28.53947275 105.1875 -28.4375 C105.85742981 -28.43445862 106.52735962 -28.43141724 107.21759033 -28.42828369 C131.49978173 -28.26627281 152.78767749 -21.47786138 174 -10 C175.07121094 -9.4225 176.14242188 -8.845 177.24609375 -8.25 C218.47176522 14.90928488 250.06444769 56.45037213 263.35498047 101.63818359 C266.5766891 113.43485632 269.1249257 125.64029376 269.203125 137.890625 C269.21027527 138.62828094 269.21742554 139.36593689 269.22479248 140.12594604 C269.45587162 170.99528141 264.96819464 198.98832893 251 227 C250.62085449 227.76393066 250.24170898 228.52786133 249.85107422 229.31494141 C244.84310747 239.30900606 239.53403304 248.90760476 233 258 C232.37158203 258.88099365 232.37158203 258.88099365 231.73046875 259.77978516 C225.77865805 268.10503045 219.58324974 276.16121887 213 284 C212.18684326 284.98355469 211.37368652 285.96710938 210.53588867 286.98046875 C202.83574969 296.20565368 194.53693205 304.74038789 186.0078125 313.19799805 C183.73371098 315.45365692 181.46790026 317.71740277 179.203125 319.98242188 C177.73484829 321.44578753 176.26611453 322.90869478 174.796875 324.37109375 C174.13210144 325.03475449 173.46732788 325.69841522 172.78240967 326.38218689 C168.89909394 330.22687434 164.91171561 333.89999264 160.77076721 337.46611023 C158.18351185 339.70726565 155.69221731 342.04193464 153.1875 344.375 C148.56219047 348.64839971 143.79918099 352.68883729 138.890625 356.63671875 C136.25270082 358.7934 133.67698254 361.00246037 131.10888672 363.24072266 C123.33627935 370.00645889 115.23230423 376.25565415 107.01367188 382.46679688 C104.06381375 384.71280912 101.15616397 387.01042145 98.25 389.3125 C79.70315532 403.94974796 60.70086082 417.91387521 41.375 431.5 C40.55765381 432.07572754 39.74030762 432.65145508 38.89819336 433.24462891 C27.43266631 441.26707952 19.29008368 445.51506707 5 444 C-2.86892983 441.90981551 -9.54795806 435.83895721 -15.96484375 431.0078125 C-19.95268148 428.01233546 -24.03102613 425.16018892 -28.125 422.3125 C-37.53383991 415.73067811 -46.61882933 408.73470877 -55.72363281 401.74169922 C-58.52802636 399.59599528 -61.35417473 397.48233473 -64.1875 395.375 C-78.87890045 384.38802144 -93.20515197 372.96893383 -107.171875 361.07641602 C-110.50727583 358.24122675 -113.88982432 355.47993023 -117.3125 352.75 C-122.84448372 348.25627715 -128.00694839 343.40140723 -133.16723633 338.49121094 C-133.80685303 337.8830957 -134.44646973 337.27498047 -135.10546875 336.6484375 C-135.94307739 335.84672119 -135.94307739 335.84672119 -136.79760742 335.02880859 C-138.76487874 333.21658992 -140.76794353 331.46414881 -142.79052734 329.71435547 C-146.75557665 326.25532024 -150.52295239 322.6382082 -154.24609375 318.921875 C-155.22921288 317.94374847 -155.22921288 317.94374847 -156.23219299 316.94586182 C-157.60735046 315.57572761 -158.98119255 314.20427202 -160.35375977 312.83154297 C-162.42379215 310.76369339 -164.50169673 308.70398475 -166.58007812 306.64453125 C-173.85740302 299.39762531 -180.64612274 292.07741976 -187 284 C-187.93319912 282.90846461 -188.8744746 281.82371366 -189.828125 280.75 C-221.83062568 244.41167665 -243.54499433 197.0152076 -243.3125 148.25 C-243.31067719 147.45563538 -243.30885437 146.66127075 -243.30697632 145.84283447 C-243.26234022 134.29240718 -242.82109404 123.25025001 -240 112 C-239.83371094 111.2889209 -239.66742188 110.5778418 -239.49609375 109.84521484 C-228.04591304 61.2137529 -195.80677644 19.49669423 -153.86035156 -6.85205078 C-105.75051024 -36.53872714 -44.52822935 -36.47074023 0 0 Z M33.45507812 45.36376953 C26.386038 51.59494534 20.2705214 56.45129237 10.5 56.0625 C1.93222635 54.65186136 -4.26348176 48.0096516 -10.41015625 42.35546875 C-33.90852916 20.98364542 -57.01401718 9.88015123 -88.92626953 10.81640625 C-95.61997655 11.216221 -101.66141836 12.8350869 -108 15 C-109.09957031 15.36222656 -110.19914062 15.72445312 -111.33203125 16.09765625 C-131.53263278 23.3034331 -148.10861168 35.70614173 -163 51 C-163.48339844 51.43828125 -163.96679688 51.8765625 -164.46484375 52.328125 C-186.33275464 72.70387256 -202.54474028 106.4339829 -204.17700195 136.23120117 C-204.9781568 179.52867312 -191.17970998 216.26569758 -164 250 C-163.26007813 250.93328125 -162.52015625 251.8665625 -161.7578125 252.828125 C-156.95897004 258.80533091 -151.89714012 264.48509543 -146.68359375 270.09765625 C-144.27463475 272.70297872 -141.91368777 275.34269014 -139.5625 278 C-132.43499487 285.93222346 -124.91465467 293.50978891 -116.79296875 300.42578125 C-114.94570371 302.0476719 -113.22243286 303.74660205 -111.5 305.5 C-107.83729197 309.2118719 -103.96020571 312.61011518 -100 316 C-98.94517618 316.90739364 -97.89050014 317.81495908 -96.8359375 318.72265625 C-93.82876136 321.30847979 -90.81535196 323.88692027 -87.79931641 326.46240234 C-86.6391774 327.45379386 -85.47992905 328.44622904 -84.32177734 329.43994141 C-76.67909761 335.99705243 -68.88948167 342.32313208 -60.93359375 348.49609375 C-58.87770025 350.09512203 -56.82911162 351.70320039 -54.78125 353.3125 C-46.213187 360.03130675 -37.5507273 366.59669791 -28.76171875 373.02392578 C-24.22378734 376.34580408 -19.7415508 379.72216494 -15.3125 383.1875 C-8.61604308 388.38629175 -1.64565504 393.16513727 5.39892578 397.87841797 C7 399 7 399 9.15234375 400.87890625 C10.98111668 402.24722915 10.98111668 402.24722915 13.36254883 401.7253418 C16.05036825 400.98614792 17.76445552 400.09097249 20.046875 398.515625 C21.1774231 397.74109985 21.1774231 397.74109985 22.33081055 396.95092773 C23.12914307 396.38962158 23.92747559 395.82831543 24.75 395.25 C26.00647339 394.37807007 26.00647339 394.37807007 27.28833008 393.48852539 C35.02227472 388.07673206 42.50572818 382.36200822 49.95898438 376.57324219 C53.25661282 374.031386 56.59837011 371.54941098 59.9375 369.0625 C73.62210745 358.83332788 87.03023197 348.26796186 100.24267578 337.43701172 C101.85341883 336.1198634 103.47128566 334.81143927 105.08984375 333.50390625 C110.42446804 329.186826 115.59293867 324.7366637 120.66796875 320.1171875 C122.75823889 318.21948831 124.86986115 316.35266585 127 314.5 C151.66145756 293.04257122 151.66145756 293.04257122 174.05078125 269.28515625 C175.62904537 267.43488669 177.23155869 265.61836354 178.85546875 263.80859375 C212.34482594 226.24351488 232.50018807 184.0188242 230 133 C229.3434981 126.48301777 227.89758229 120.25884446 226 114 C225.78569336 113.28102539 225.57138672 112.56205078 225.35058594 111.82128906 C213.87084714 74.37428086 187.20878069 41.41905327 152.8125 22.6875 C107.67705932 -0.77598243 69.66597411 13.39884144 33.45507812 45.36376953 Z " fill="#000000" transform="translate(243,48)"/>
</svg>
