<?xml version="1.0" encoding="UTF-8"?>
<svg version="1.1" xmlns="http://www.w3.org/2000/svg" width="512" height="512">
<path class="icone-connexion" d="M0 0 C4.48603164 0.00513157 8.97205588 0.00034898 13.45808792 -0.00277233 C20.98569098 -0.00639143 28.51325455 -0.00166732 36.04085159 0.00790882 C44.69267728 0.01878936 53.34440863 0.01526232 61.99623203 0.00425601 C69.47966082 -0.00487594 76.96306153 -0.00607351 84.4464941 -0.00086665 C88.89187219 0.00222083 93.33720623 0.00275271 97.78258133 -0.00393963 C132.89893288 -0.04939211 166.92412797 0.62210065 194.58284378 25.26865101 C195.12924515 25.75462757 195.67564651 26.24060413 196.2386055 26.74130726 C215.09540362 43.8430946 228.22544266 67.7650241 229.77824593 93.50811863 C229.86215965 97.1337063 229.88734382 100.75488149 229.88924026 104.38144398 C229.89688001 105.76410326 229.90531055 107.14675836 229.91446304 108.52940845 C229.93621381 112.25005703 229.94517838 115.9706236 229.95028949 119.69132853 C229.95395087 122.01931904 229.96019946 124.34728859 229.96729088 126.67527103 C229.99170054 134.80536551 230.00482252 142.93539677 230.00838089 151.06552601 C230.01202787 158.63379137 230.04202748 166.20165418 230.08378547 173.76979625 C230.11846322 180.28385677 230.13392875 186.79778334 230.13462692 193.31193554 C230.13541945 197.19599108 230.14414934 201.07963375 230.17262459 204.96359348 C230.19876854 208.60987643 230.20103203 212.25540248 230.18496895 215.90173626 C230.18228711 217.87477206 230.20435379 219.84779295 230.22716141 221.82069874 C230.14723652 231.45863468 230.14723652 231.45863468 227.17038345 234.53967762 C223.0136469 237.31717586 220.63337798 237.61106011 215.58284378 237.26865101 C211.76085508 235.56998937 210.10235547 234.12504819 208.58284378 230.26865101 C208.32951069 227.72842503 208.32951069 227.72842503 208.32455826 224.80814075 C208.31773026 223.69826801 208.31090225 222.58839527 208.30386734 221.44489002 C208.30642029 220.23140888 208.30897324 219.01792774 208.31160355 217.76767445 C208.30357937 215.79974146 208.29555283 213.83180848 208.28743827 211.86387587 C208.28058368 209.74874678 208.27858303 207.63366092 208.27788353 205.51852131 C208.27593761 201.09468707 208.25785051 196.67100845 208.2371254 192.24722767 C208.18798577 181.24867503 208.15718189 170.25007971 208.1358223 159.25143909 C208.11922292 150.72148618 208.09616227 142.19166607 208.05280155 133.66180158 C208.03473636 129.99259843 208.02239007 126.32357596 208.02409935 122.65432453 C208.09794484 94.66796348 208.09794484 94.66796348 199.58284378 68.26865101 C199.16389847 67.36888538 198.74495316 66.46911976 198.31331253 65.54208851 C188.94150846 46.79848037 172.59513863 34.09613442 153.05159378 26.98349476 C145.02202715 24.41440177 137.52894887 23.14772749 129.07770157 23.12820911 C128.3547262 23.12523799 127.63175082 23.12226687 126.88686711 23.11920571 C124.48139617 23.11058336 122.07597538 23.10901597 119.67049026 23.1075182 C117.93849966 23.10288535 116.20651006 23.09786007 114.47452164 23.09247303 C109.77993135 23.07938996 105.08535535 23.07291182 100.39074969 23.06846237 C97.45231293 23.06552438 94.51388 23.06141817 91.57544518 23.0569582 C82.36611273 23.04329263 73.15678912 23.03362197 63.94744724 23.02975631 C53.34611625 23.02528094 42.74491453 23.00775327 32.14362282 22.97875571 C23.9301647 22.95707598 15.71674278 22.94704864 7.50325638 22.94571519 C2.60678092 22.94467145 -2.28957287 22.93885628 -7.18601799 22.92089558 C-11.79815791 22.90430625 -16.41008611 22.90231158 -21.02224541 22.91103458 C-22.70472408 22.91179924 -24.38721465 22.90753866 -26.069664 22.89757633 C-50.15084332 22.7634724 -71.32377089 29.35070334 -89.26481247 46.02646351 C-106.36810705 63.84368871 -112.55430676 85.21559275 -112.57487106 109.28476429 C-112.5826697 111.28014927 -112.59047241 113.27553425 -112.59842896 115.27091861 C-112.60611537 117.404674 -112.61151315 119.5384252 -112.61638641 121.67218876 C-112.62711395 126.12681684 -112.64736844 130.5813703 -112.66950607 135.03595448 C-112.73128021 147.69893465 -112.78549362 160.36190835 -112.81852341 173.02499866 C-112.83686803 180.02756761 -112.86579368 187.03000941 -112.90652812 194.03248489 C-112.92758482 197.73425689 -112.94305364 201.43586885 -112.94533539 205.1377039 C-112.94788132 209.26242364 -112.97333847 213.38669669 -113.00065231 217.51132679 C-112.99764618 218.73535206 -112.99464005 219.95937733 -112.99154282 221.22049427 C-113.0026358 222.34474812 -113.01372879 223.46900196 -113.02515793 224.6273241 C-113.02846807 225.60178549 -113.03177822 226.57624687 -113.03518867 227.58023739 C-113.48820081 230.76868627 -114.56224278 232.65933901 -116.41715622 235.26865101 C-119.84480874 237.8393904 -123.25686918 237.69902553 -127.41715622 237.26865101 C-132.95561776 234.19172793 -132.95561776 234.19172793 -134.41715622 231.26865101 C-134.51913774 229.44674677 -134.55664116 227.62110101 -134.56432724 225.79636097 C-134.57148254 224.6332288 -134.57863785 223.47009663 -134.58600998 222.27171803 C-134.58869888 220.98873325 -134.59138779 219.70574848 -134.59415817 218.38388538 C-134.60042289 217.02364904 -134.6070697 215.6634144 -134.61407089 214.30318165 C-134.63514476 209.82293361 -134.64548881 205.34268517 -134.65543747 200.86240101 C-134.65948633 199.31564281 -134.66360329 197.7688848 -134.66778755 196.22212696 C-134.6868608 188.94134904 -134.70107711 181.66058127 -134.70939952 174.37978315 C-134.71912565 166.01062775 -134.74531381 157.64174012 -134.78590041 149.27267885 C-134.81625893 142.78663382 -134.83088763 136.30066452 -134.83418053 129.81454992 C-134.83651227 125.95067472 -134.845221 122.08708474 -134.87064171 118.22328663 C-135.08470162 83.8972348 -129.07631135 54.97922934 -104.16715622 29.58115101 C-75.00535665 0.80947585 -38.52676838 -0.0580005 0 0 Z " fill="#000000" transform="translate(208.41715621948242,259.73134899139404)"/>
<path d="M0 0 C24.33165846 21.11852819 36.01313658 48.38675141 38.37109375 80.09375 C38.44319048 82.29906167 38.34850367 84.42344984 38.1875 86.625 C38.10757813 87.81738281 38.02765625 89.00976562 37.9453125 90.23828125 C36.08011665 112.54613009 28.18332424 133.82034093 13.1875 150.625 C12.52492188 151.429375 11.86234375 152.23375 11.1796875 153.0625 C-5.90381555 173.23490212 -31.45256757 186.42051183 -57.8125 188.625 C-88.04718143 190.47679637 -116.1073593 182.92611707 -139.24267578 162.84594727 C-162.61483222 141.87047023 -173.69858176 115.05045383 -175.99609375 84.15625 C-176.06819048 81.95093833 -175.97350367 79.82655016 -175.8125 77.625 C-175.73257813 76.43261719 -175.65265625 75.24023438 -175.5703125 74.01171875 C-173.2536676 46.3045136 -160.990678 19.98713612 -139.8125 1.625 C-99.08190126 -31.61023891 -41.12118547 -34.31613223 0 0 Z M-126.8125 19.625 C-127.50859375 20.22699219 -128.2046875 20.82898438 -128.921875 21.44921875 C-144.29017985 35.61879582 -153.07318711 56.59922648 -154.09375 77.265625 C-154.77218599 100.66339297 -147.70489114 121.44552565 -132.25 139.0625 C-130.79058425 140.60229665 -129.31264467 142.12485533 -127.8125 143.625 C-127.18988281 144.24761719 -126.56726563 144.87023437 -125.92578125 145.51171875 C-109.24016265 161.07796671 -87.26948515 167.87618475 -64.8125 167.625 C-44.25138385 166.40902001 -26.13530833 158.20353067 -10.8125 144.625 C-10.12800781 144.03460938 -9.44351563 143.44421875 -8.73828125 142.8359375 C5.49744049 129.69096851 15.15617815 108.76050234 16.3137207 89.52783203 C17.16600651 64.9765896 11.12226103 44.11467856 -5.25 25.375 C-6.75306938 23.77479348 -8.27342667 22.19060907 -9.8125 20.625 C-10.49828125 19.92632812 -11.1840625 19.22765625 -11.890625 18.5078125 C-27.51385053 3.63681635 -49.6640422 -3.85317836 -71.03125 -3.5234375 C-92.39279047 -2.38335528 -110.92066072 5.35732669 -126.8125 19.625 Z " fill="#000000" transform="translate(324.8125,39.375)"/>
</svg>
