<?xml version="1.0" encoding="UTF-8"?>
<svg version="1.1" xmlns="http://www.w3.org/2000/svg" width="512" height="512">
<path d="M0 0 C11.0907025 8.91467859 19.61379143 21.17665521 21.30029297 35.5612793 C21.43568188 38.15325786 21.46813729 40.71725592 21.4375 43.3125 C21.42920166 44.22821777 21.42090332 45.14393555 21.41235352 46.08740234 C21.01781958 62.00635543 14.45641456 74.67378332 3.00390625 85.63671875 C-5.169837 92.06729699 -15.5342014 97.21591737 -26 98 C-27.34191406 98.11988281 -27.34191406 98.11988281 -28.7109375 98.2421875 C-43.43026548 98.91304159 -57.01135361 94.17376866 -68.45703125 85.0390625 C-79.00988569 75.36711073 -85.27251831 62.33023997 -86.2734375 48.1171875 C-86.83332865 32.59040469 -82.92440394 19.6500979 -72.75 7.75 C-53.24063613 -12.83777092 -23.65027439 -15.66778844 0 0 Z M-54.234375 21.08203125 C-61.0525976 28.38549232 -64.40209474 35.61126919 -64.2109375 45.76171875 C-63.37009007 54.68404422 -59.72397889 61.76570185 -53.078125 67.72265625 C-46.11500802 73.21488224 -38.55919694 76.66951931 -29.55078125 75.75 C-19.50163404 74.02640967 -12.47956459 69.93064225 -6 62 C-1.16695834 54.31170318 -0.22178606 47.00504698 -1 38 C-3.25727545 28.50856466 -9.27544473 21.28842771 -17.3203125 15.9609375 C-29.42949051 9.03336124 -44.28968527 11.81538855 -54.234375 21.08203125 Z " fill="#000000" transform="translate(363,212)"/>
<path d="M0 0 C14.71932798 -0.67085409 28.30041611 4.06841884 39.74609375 13.203125 C50.29894819 22.87507677 56.56158081 35.91194753 57.5625 50.125 C58.12239115 65.65178281 54.21346644 78.5920896 44.0390625 90.4921875 C32.97567704 102.16711688 19.43737181 108.07482277 3.4140625 108.5546875 C-10.80781447 108.22816481 -24.32120082 102.85848889 -34.6484375 93.0546875 C-45.09148416 81.82725884 -50.31870863 69.64734551 -50.1484375 54.3671875 C-50.14013916 53.40192139 -50.13184082 52.43665527 -50.12329102 51.44213867 C-49.75328999 35.80597451 -42.96179895 23.37163808 -31.71484375 12.60546875 C-22.39574013 5.27379425 -11.74438898 1.04921054 0 0 Z M-18.9609375 31.9921875 C-26.02434157 39.43027116 -28.10702236 46.99651176 -27.984375 57.078125 C-27.15632501 66.6598463 -22.06463743 73.6682656 -14.9140625 79.77734375 C-8.56802243 84.59303345 -1.29034455 86.6537831 6.671875 86.06640625 C16.25828331 84.57886013 23.81295323 79.74640811 29.88671875 72.2578125 C34.48537278 65.64804793 36.0412023 58.22322648 35.2890625 50.2421875 C33.43246042 40.34555437 28.52605542 33.05653545 20.2890625 27.2421875 C6.80318127 19.80862913 -7.61317391 21.31440257 -18.9609375 31.9921875 Z " fill="#000000" transform="translate(177.7109375,201.7578125)"/>
<path d="M0 0 C12.16754622 8.62534937 19.32586176 19.52796882 22.95703125 34.00390625 C24.72185812 45.3185907 23.66525486 56.06929538 19.375 66.68359375 C19.07464844 67.42996094 18.77429688 68.17632812 18.46484375 68.9453125 C12.72624018 81.59011431 2.25745214 90.63110978 -10.5625 95.68359375 C-25.77163784 101.11139015 -41.16302805 99.69413931 -55.6875 93.05859375 C-69.4154216 85.82120503 -77.79588959 74.24881387 -82.625 59.68359375 C-86.37191779 46.589211 -84.28895877 30.59824911 -78.08203125 18.734375 C-70.41254371 5.8699943 -59.0558322 -3.63365865 -44.48046875 -7.65625 C-28.55607889 -10.38291858 -13.74433255 -8.83249576 0 0 Z M-55.625 25.68359375 C-61.10546353 34.51250278 -62.97868014 42.82231365 -61.19921875 53.15625 C-58.84357734 61.35041368 -53.80528487 67.61838848 -46.625 72.12109375 C-38.26133816 76.68194258 -30.67238233 77.95015442 -21.5 75.43359375 C-13.61453593 72.83319644 -6.4921684 67.71841055 -2.328125 60.40625 C1.56063832 51.93832698 2.73687162 44.13181497 -0.25 35.18359375 C-3.83106283 26.16231003 -8.97765658 20.20903681 -17.625 15.68359375 C-31.79987808 10.09026348 -45.86002884 14.37779873 -55.625 25.68359375 Z " fill="#000000" transform="translate(211.625,360.31640625)"/>
<path d="M0 0 C9.77309483 8.27751516 16.53899125 19.43562888 19.265625 31.99609375 C19.51001273 35.36790392 19.49674339 38.74128555 19.515625 42.12109375 C19.53625 43.02085938 19.556875 43.920625 19.578125 44.84765625 C19.66376266 59.74860884 13.35404873 71.81006675 3.09375 82.29296875 C-9.13696972 93.98310417 -23.13898666 96.50011263 -39.44140625 96.2734375 C-52.6972163 95.80410197 -64.07059923 89.14034473 -73.6328125 80.25390625 C-84.61684806 68.45321378 -88.26702183 54.13141253 -88.01953125 38.4375 C-87.75477646 32.24436671 -86.04739421 26.71861532 -83.734375 20.99609375 C-83.43402344 20.24972656 -83.13367188 19.50335938 -82.82421875 18.734375 C-77.08561518 6.08957319 -66.61682714 -2.95142228 -53.796875 -8.00390625 C-35.49427273 -14.53568996 -15.67636646 -11.48853713 0 0 Z M-60.734375 24.99609375 C-65.10012887 32.66246275 -67.2724264 40.96693227 -65.05078125 49.67578125 C-61.59213154 60.03737913 -56.41210791 66.79815947 -46.734375 71.99609375 C-39.16339109 75.13876631 -30.27156233 75.21537621 -22.546875 72.49609375 C-13.13603615 68.16892348 -7.51796449 61.50574056 -3.734375 51.99609375 C-1.43481064 45.09740068 -1.99981867 36.90107103 -4.640625 30.15234375 C-9.45482457 20.66149317 -16.52792044 15.35026617 -26.359375 11.62109375 C-40.06345413 9.08330132 -52.02600948 14.19518409 -60.734375 24.99609375 Z " fill="#000000" transform="translate(364.734375,64.00390625)"/>
<path d="M0 0 C0.74636719 0.30035156 1.49273437 0.60070313 2.26171875 0.91015625 C14.90652056 6.64875982 23.94751603 17.11754786 29 29.9375 C34.4277964 45.14663784 33.01054556 60.53802805 26.375 75.0625 C19.13761128 88.7904216 7.56522012 97.17088959 -7 102 C-11.68402895 103.35067413 -16.28195886 103.2229439 -21.125 103.25 C-22.02476562 103.270625 -22.92453125 103.29125 -23.8515625 103.3125 C-38.62250957 103.3973905 -50.84087393 97.17345305 -61.23046875 86.953125 C-72.29069139 75.49883267 -75.62516859 62.19680273 -75.47290039 46.67504883 C-74.99423643 32.33718219 -68.95792395 20.53932501 -59.2578125 10.1015625 C-43.17740533 -4.86601372 -20.02551869 -8.09423063 0 0 Z M-46.75390625 30.140625 C-52.50001479 38.28209927 -53.98391894 46.13558191 -53 56 C-51.21432632 63.75298827 -46.9860725 69.82974658 -41 75 C-32.17109097 80.48046353 -23.8612801 82.35368014 -13.52734375 80.57421875 C-5.33318007 78.21857734 0.93479473 73.18028487 5.4375 66 C9.99834883 57.63633816 11.26656067 50.04738233 8.75 40.875 C6.14960269 32.98953593 1.0348168 25.8671684 -6.27734375 21.703125 C-20.59872928 15.12624912 -36.44573837 17.55960941 -46.75390625 30.140625 Z " fill="#000000" transform="translate(203,57)"/>
<path d="M0 0 C0.89976562 -0.020625 1.79953125 -0.04125 2.7265625 -0.0625 C17.62751509 -0.14813766 29.688973 6.16157627 40.171875 16.421875 C51.86201042 28.65259472 54.37901888 42.65461166 54.15234375 58.95703125 C53.68300822 72.2128413 47.01925098 83.58622423 38.1328125 93.1484375 C26.33212003 104.13247306 12.01031878 107.78264683 -3.68359375 107.53515625 C-9.87672704 107.27040146 -15.40247843 105.56301921 -21.125 103.25 C-22.24455078 102.79947266 -22.24455078 102.79947266 -23.38671875 102.33984375 C-36.03152056 96.60124018 -45.07251603 86.13245214 -50.125 73.3125 C-55.5527964 58.10336216 -54.13554556 42.71197195 -47.5 28.1875 C-40.26261128 14.4595784 -28.69022012 6.07911041 -14.125 1.25 C-9.44097105 -0.10067413 -4.84304114 0.0270561 0 0 Z M-22.30078125 31.05078125 C-27.90302561 37.80466471 -31.47511309 46.16742328 -31.34375 54.96875 C-30.41875073 64.61517093 -25.96865464 71.9845013 -19.12109375 78.640625 C-12.97192115 83.59847062 -5.24196722 85.6600051 2.5703125 85.52734375 C11.54942943 84.44680595 19.90629576 80.09376375 25.62890625 73.109375 C31.37501479 64.96790073 32.85891894 57.11441809 31.875 47.25 C30.08932632 39.49701173 25.8610725 33.42025342 19.875 28.25 C5.97947027 19.62447859 -9.98710646 19.53637135 -22.30078125 31.05078125 Z " fill="#000000" transform="translate(330.125,351.75)"/>
</svg>
