<?xml version="1.0" encoding="UTF-8"?>
<svg version="1.1" xmlns="http://www.w3.org/2000/svg" width="512" height="512">
<path d="M0 0 C0.9075 0.68320312 1.815 1.36640625 2.75 2.0703125 C38.88638238 30.35563561 63.09367987 72.98956684 68.75488281 118.57714844 C69.54215588 126.35891929 69.7765035 134.18532919 70 142 C70.8156543 141.98428955 71.63130859 141.9685791 72.47167969 141.95239258 C75.55808062 141.90063225 78.64425715 141.86334786 81.73095703 141.83520508 C83.69969568 141.8130657 85.66823362 141.77490648 87.63671875 141.73632812 C104.65856281 141.60672018 119.16626366 146.40576227 131.6484375 158.359375 C141.86803102 169.83519762 148.0567914 183.46689973 148.16113281 198.99853516 C148.17074036 200.16059479 148.1803479 201.32265442 148.19024658 202.51992798 C148.19449646 203.76374237 148.19874634 205.00755676 148.203125 206.2890625 C148.20882507 207.58387543 148.21452515 208.87868835 148.22039795 210.21273804 C148.23087195 212.95123686 148.23673732 215.68970666 148.24023438 218.42822266 C148.24569528 221.90439198 148.26968641 225.38016493 148.29820633 228.85621071 C148.32153756 232.20881864 148.32329617 235.56137778 148.328125 238.9140625 C148.3404718 240.14573151 148.3528186 241.37740051 148.36553955 242.64639282 C148.32281354 259.45965229 143.1425681 274.63054638 131.3125 286.8203125 C116.17144271 301.09178204 99.31679361 304.54328389 79.05859375 304.39111328 C76.47603976 304.37484911 73.89501038 304.39113852 71.3125 304.41015625 C69.65624658 304.40817662 67.99999409 304.40433875 66.34375 304.3984375 C65.57913452 304.40451019 64.81451904 304.41058289 64.0267334 304.4168396 C59.50978605 304.35738609 56.57168914 303.82302728 53 301 C50.60849183 297.41273775 50.74764113 295.83734999 50.74171448 291.57466125 C50.73803877 290.91932897 50.73436307 290.26399669 50.73057598 289.58880585 C50.7205783 287.38765712 50.7247506 285.18676019 50.72875977 282.9855957 C50.72437289 281.40834789 50.71907088 279.8311024 50.71292114 278.25386047 C50.70140333 274.85064083 50.6959603 271.44748359 50.69503975 268.04424477 C50.69309564 262.63956202 50.67501567 257.23500699 50.65428162 251.83036804 C50.60510558 238.38603225 50.57439013 224.94166117 50.55297852 211.49725342 C50.53635521 201.08394799 50.5132094 190.67075093 50.46995777 180.25751752 C50.4519346 175.77762812 50.4395409 171.29788569 50.44125557 166.81795692 C50.45570614 112.59561731 40.05005304 67.81640031 1.875 27.5 C-9.30711686 16.65673517 -22.17132755 8.05508607 -36 1 C-36.60489258 0.68337402 -37.20978516 0.36674805 -37.83300781 0.04052734 C-74.45910848 -18.98795415 -118.00067387 -20.70321316 -157.015625 -8.66796875 C-164.26212415 -6.31410784 -171.17045838 -3.36541634 -178 0 C-179.69189453 0.83337891 -179.69189453 0.83337891 -181.41796875 1.68359375 C-218.33385025 20.78105694 -245.86451081 54.04257415 -258.53320312 93.51831055 C-264.26968302 112.24633593 -266.15422869 130.69118073 -266.12597656 150.22412109 C-266.12737419 151.83337452 -266.12927536 153.44262758 -266.13163757 155.05187988 C-266.13610544 158.49536815 -266.13799 161.93884458 -266.13809967 165.38233566 C-266.13924692 170.8286207 -266.1521323 176.27483905 -266.16766357 181.72109985 C-266.17023643 182.64282309 -266.17280928 183.56454633 -266.1754601 184.51420057 C-266.1807254 186.39749024 -266.18601088 188.28077985 -266.19131613 190.16406941 C-266.22636678 202.82895476 -266.25296899 215.49375339 -266.25048828 228.15869141 C-266.24890078 236.72440484 -266.26489902 245.28988725 -266.30119491 253.85552657 C-266.319654 258.38228192 -266.32899694 262.90865135 -266.31671906 267.43543625 C-266.30529901 271.68583679 -266.31694613 275.93554388 -266.34635353 280.18585205 C-266.35300145 281.74470388 -266.35111465 283.30361905 -266.34005547 284.86244583 C-266.32620396 286.99135293 -266.34304816 289.11791127 -266.36749268 291.24667358 C-266.36895924 292.43717001 -266.3704258 293.62766644 -266.3719368 294.85423851 C-267.18277215 298.91544543 -268.85658516 300.39767883 -272 303 C-274.64458379 304.32229189 -276.67761301 304.09677194 -279.625 304.0625 C-281.12933594 304.04896484 -281.12933594 304.04896484 -282.6640625 304.03515625 C-283.82035156 304.01775391 -283.82035156 304.01775391 -285 304 C-283.09979808 318.2600431 -281.17942371 331.91107934 -275 345 C-274.70077637 345.64114746 -274.40155273 346.28229492 -274.09326172 346.94287109 C-269.81440768 355.92468976 -264.75099509 363.63227452 -258 371 C-256.76830078 372.37091797 -256.76830078 372.37091797 -255.51171875 373.76953125 C-231.1116737 399.6155049 -199.10388426 404.85027333 -165 406 C-164.8153418 405.33250732 -164.63068359 404.66501465 -164.44042969 403.97729492 C-161.392554 393.33199849 -155.88050786 384.17058717 -146.203125 378.3046875 C-137.18135388 373.56482298 -128.9317801 371.68753445 -118.79296875 371.69921875 C-117.94632156 371.69493362 -117.09967438 371.6906485 -116.22737122 371.68623352 C-114.44838346 371.68053049 -112.6693724 371.67995995 -110.89038086 371.68432617 C-108.20449986 371.68748004 -105.5197293 371.66399749 -102.83398438 371.63867188 C-86.94178133 371.57893229 -73.9130438 373.54465139 -61.75 384.625 C-53.1231776 393.74079209 -49.43872187 405.46673261 -49.6875 417.78125 C-50.86044443 429.86257767 -56.22166751 440.06071246 -64.953125 448.3671875 C-74.39555167 455.89950495 -84.25468118 458.312868 -96.0546875 458.30078125 C-96.99627716 458.30506638 -97.93786682 458.3093515 -98.9079895 458.31376648 C-100.88966065 458.31948069 -102.87135275 458.32003164 -104.85302734 458.31567383 C-107.85941926 458.31251636 -110.86482331 458.33600129 -113.87109375 458.36132812 C-115.80729044 458.3636019 -117.74348974 458.36430425 -119.6796875 458.36328125 C-120.5654245 458.372491 -121.4511615 458.38170074 -122.36373901 458.39118958 C-134.37177464 458.30364145 -144.87601356 454.08591472 -153.6875 445.9375 C-159.14391838 440.25174004 -162.52124097 433.4362771 -165 426 C-165.90016846 425.96036133 -166.80033691 425.92072266 -167.7277832 425.87988281 C-202.75891917 424.26020452 -233.34839953 419.1255073 -261 396 C-261.94617188 395.21882813 -262.89234375 394.43765625 -263.8671875 393.6328125 C-275.41944333 383.65140165 -284.13276149 371.57732361 -291 358 C-291.30921387 357.39494629 -291.61842773 356.78989258 -291.93701172 356.16650391 C-300.1502987 339.76139699 -303.73658786 322.27122405 -304 304 C-305.15886719 304.03351563 -306.31773437 304.06703125 -307.51171875 304.1015625 C-322.48386578 304.08180598 -336.03438278 297.500136 -346.71875 287.33984375 C-360.21848741 273.49336651 -364.30121308 258.34897907 -364.3359375 239.4609375 C-364.3425943 238.18127106 -364.3492511 236.90160461 -364.35610962 235.5831604 C-364.36800789 232.88532132 -364.37179845 230.18760951 -364.37060547 227.48974609 C-364.37044334 224.75705375 -364.38427426 222.02503476 -364.41162109 219.29248047 C-364.6422325 195.89300009 -364.0576772 176.00136153 -347.15625 158.02734375 C-333.29173398 144.99168466 -318.37826888 141.63869641 -299.9375 141.875 C-298.58138685 141.88505369 -297.22526645 141.8941753 -295.86914062 141.90234375 C-292.579239 141.92575942 -289.28971562 141.95855577 -286 142 C-285.97421875 140.73929688 -285.9484375 139.47859375 -285.921875 138.1796875 C-284.61098082 92.78942859 -267.7396335 51.27682262 -236.36914062 18.43652344 C-235.04194932 17.04401387 -233.7316017 15.63551092 -232.421875 14.2265625 C-172.42642052 -48.46329862 -67.48046693 -51.8851701 0 0 Z M-334.12890625 173.03515625 C-341.27415498 180.49621707 -345.08855775 189.17989136 -345.16113281 199.52783203 C-345.17074036 200.63643585 -345.1803479 201.74503967 -345.19024658 202.88723755 C-345.19449646 204.08202728 -345.19874634 205.27681702 -345.203125 206.5078125 C-345.20882507 207.74361053 -345.21452515 208.97940857 -345.22039795 210.25265503 C-345.22984604 212.8702509 -345.23638117 215.48785866 -345.24023438 218.10546875 C-345.24676804 222.0887052 -345.28092712 226.07157189 -345.3125 230.0546875 C-345.31903316 232.60155945 -345.3242824 235.14843507 -345.328125 237.6953125 C-345.3404718 238.87795685 -345.3528186 240.0606012 -345.36553955 241.27908325 C-345.33304851 253.48601037 -342.36763306 264.16069041 -333.890625 273.265625 C-319.50535533 286.6588071 -306.59803678 285 -286 285 C-286 244.08 -286 203.16 -286 161 C-313.14486055 160.16993059 -313.14486055 160.16993059 -334.12890625 173.03515625 Z M70 161 C70 201.92 70 242.84 70 285 C96.03112853 285.70166659 96.03112853 285.70166659 117.23046875 273.99609375 C124.90843204 265.94359567 129.06359036 256.51127252 129.17700195 245.39038086 C129.18983719 244.28830795 129.20267242 243.18623505 129.21589661 242.05076599 C129.22328354 240.86741165 129.23067047 239.68405731 129.23828125 238.46484375 C129.246353 237.23520401 129.25442474 236.00556427 129.26274109 234.73866272 C129.27656274 232.13544109 129.28729346 229.53220149 129.29516602 226.92895508 C129.30666782 224.28046315 129.32709071 221.63199408 129.35668945 218.98364258 C129.39959045 215.14388371 129.41556861 211.30481326 129.42578125 207.46484375 C129.44328934 206.29565903 129.46079742 205.1264743 129.47883606 203.92185974 C129.44887245 192.40845786 126.7569627 182.65632069 119 174 C118.48695313 173.38382813 117.97390625 172.76765625 117.4453125 172.1328125 C111.94139834 165.99686993 104.90420205 162.97605051 97 161 C88.09 161 79.18 161 70 161 Z M-142 400 C-146.26774484 405.97484278 -147.86569519 411.68550294 -147 419 C-145.13407641 426.59442785 -141.5974327 431.76280728 -135 436 C-129.46937085 438.81009344 -125.07985049 439.46721294 -118.91796875 439.46875 C-118.06374832 439.47636353 -117.20952789 439.48397705 -116.329422 439.49182129 C-114.53010972 439.50257712 -112.73073524 439.50549387 -110.93139648 439.50097656 C-108.20513593 439.50000628 -105.48171305 439.54163469 -102.75585938 439.5859375 C-92.57218703 439.65625907 -84.04193492 439.49887491 -76.12036133 432.28930664 C-71.45087317 427.48809808 -68.93881408 421.6816248 -68.625 415 C-68.98794596 407.27227554 -72.34497214 401.18158366 -78 396 C-84.32089937 391.48507188 -89.83698113 390.83791438 -97.421875 390.796875 C-98.24069153 390.79117493 -99.05950806 390.78547485 -99.90313721 390.77960205 C-101.63463049 390.77016915 -103.36614158 390.76362487 -105.09765625 390.75976562 C-107.72688738 390.7500851 -110.35532798 390.71905645 -112.984375 390.6875 C-114.67187039 390.68096662 -116.35937134 390.67571747 -118.046875 390.671875 C-119.21292267 390.6533548 -119.21292267 390.6533548 -120.40252686 390.63446045 C-129.08858634 390.66934422 -136.08785529 393.54765933 -142 400 Z " fill="#000000" transform="translate(364,45)"/>
</svg>
